<?xml version="1.0" encoding="utf-8"?>
<!-- Generator: Adobe Illustrator 21.0.2, SVG Export Plug-In . SVG Version: 6.00 Build 0)  -->
<svg version="1.1" id="Layer_1" xmlns="http://www.w3.org/2000/svg" xmlns:xlink="http://www.w3.org/1999/xlink" x="0px" y="0px"
	 width="120px" height="36px" viewBox="0 0 120 36" style="enable-background:new 0 0 120 36;" xml:space="preserve">
<style type="text/css">
	.st0{fill:#4DDB5A;}
	.st1{fill:#0051C6;}
</style>
<g>
	<g>
		<g>
			<g>
				<g>
					<path class="st0" d="M25.6,28H27V4.9h-1.4c-1.1,0-2,0.9-2,2V26C23.6,27.1,24.5,28,25.6,28z"/>
				</g>
			</g>
			<g>
				<g>
					<path class="st0" d="M19.9,29h1.4V3.9h-1.4c-1.1,0-2,0.9-2,2v21C17.9,28.1,18.8,29,19.9,29z"/>
				</g>
			</g>
			<g>
				<g>
					<path class="st0" d="M31.2,27.1h1.4V5.9h-1.4c-1.1,0-2,0.9-2,2v17.2C29.2,26.2,30.1,27.1,31.2,27.1z"/>
				</g>
			</g>
			<g>
				<g>
					<path class="st0" d="M14.3,30h1.4V3h-1.4c-1.1,0-2,0.9-2,2v23C12.3,29.1,13.2,30,14.3,30z"/>
				</g>
			</g>
			<g>
				<g>
					<path class="st0" d="M8.7,31h1.4V2H8.7c-1.1,0-2,0.9-2,2v25C6.6,30.1,7.5,31,8.7,31z"/>
				</g>
			</g>
			<g>
				<g>
					<path class="st0" d="M3,32h1.4V1H3C1.9,1,1,1.9,1,3v27C1,31.1,1.9,32,3,32z"/>
				</g>
			</g>
		</g>
		<g>
			<g>
				<path class="st1" d="M46.6,6.6c1.6,0,2.9,1.8,2.9,3.1h4.1c0-3.5-3.1-7.2-7-7.2c-3.9,0-7,3.1-7,6.9s3.1,7,7,7
					c1.6,0,2.9,1.3,2.9,2.9s-1.3,3.3-2.9,3.3c-1.6,0-2.9-1.3-2.9-2.6h-4.1c0,3.7,3.1,6.7,7,6.7c3.9,0,7-3.3,7-7.2s-3.1-7.1-7-7.1
					c-1.6,0-2.9-1.3-2.9-2.9C43.6,7.9,45,6.6,46.6,6.6z"/>
			</g>
			<g>
				<rect x="95.9" y="9.7" class="st1" width="4.1" height="17.1"/>
			</g>
			<g>
				<rect x="102.5" y="2.6" class="st1" width="4.3" height="24.1"/>
			</g>
			<g>
				<rect x="109.3" y="2.6" class="st1" width="4.3" height="24.1"/>
			</g>
			<g>
				<path class="st1" d="M93.6,9.7h-4.5v1.1C87.8,10,86.5,9.6,85,9.6c-4.6,0-8.3,3.8-8.3,8.4s3.6,8.4,8.2,8.4c1.6,0,2.9-0.4,4.1-1.2
					v0.8c0,2.5-1.6,4.8-4.2,4.8H82v4.5h2.8c4.8,0,8.7-4.6,8.7-9.4V18c0,0,0-0.1,0-0.1c0,0,0-0.1,0-0.1V9.7z M89.1,18
					c0,2.3-1.7,4.2-4.1,4.2c-2.4,0-4.2-1.9-4.2-4.3s1.8-4.3,4.1-4.3c2.3,0,4.1,1.9,4.1,4.2L89.1,18L89.1,18z"/>
			</g>
			<g>
				<polygon class="st1" points="77.8,9.7 73,9.7 70.2,14.2 67.4,9.7 62.6,9.7 67.8,18.2 62.7,26.8 67.5,26.8 70.2,22.3 73,26.8 
					77.8,26.8 72.6,18.2 				"/>
			</g>
			<g>
				<rect x="55.9" y="9.7" class="st1" width="4.7" height="17.1"/>
			</g>
			<g>
				<path class="st1" d="M115.8,25v-0.2h1.3V25h-0.5v1.4h-0.2V25H115.8z"/>
				<path class="st1" d="M117.7,24.8l0.5,1.3l0.5-1.3h0.3v1.6h-0.2v-1.3l0,0l-0.5,1.3h-0.2l-0.5-1.3l0,0v1.3h-0.2v-1.6H117.7z"/>
			</g>
			<g>
				<circle class="st1" cx="58.1" cy="4.6" r="2.2"/>
			</g>
			<g>
				<circle class="st1" cx="97.8" cy="4.6" r="2.2"/>
			</g>
		</g>
	</g>
</g>
</svg>
